<svg xmlns="http://www.w3.org/2000/svg" viewBox="0 0 516.4 218.11"><defs><style>.cls-1{font-size:117.32px;font-family:Poppins-Bold, Poppins;font-weight:700;}.cls-1,.cls-2{fill:#fff;}.cls-3{opacity:0.3;}.cls-4{fill:#390075;}.cls-5{fill:#b5e5fb;}.cls-6{fill:#39d5ff;}.cls-7{fill:#102770;}.cls-8{fill:#f694ab;}.cls-9{fill:#fd6ccb;}.cls-10{fill:#fef26b;}.cls-11{fill:#fccaca;}.cls-12{opacity:0.35;}.cls-13{fill:#fec2e6;}.cls-14{opacity:0.6;}.cls-15{fill:#fdd800;}.cls-16{fill:#f883a0;}.cls-17{fill:#ffebf6;}.cls-18{fill:#fdc1e5;}.cls-19{fill:#e9393b;}.cls-20{opacity:0.5;}</style></defs><g id="Layer_2" data-name="Layer 2"><g id="Layer_1-2" data-name="Layer 1"><text class="cls-1" transform="translate(241.87 117.56)">IBDB</text><path class="cls-2" d="M251.08,150.47v21.06H246V150.47Z"/><path class="cls-2" d="M269.7,156.52a7.42,7.42,0,0,1,1.75,5.23v9.78h-5.1v-9.09a3.67,3.67,0,0,0-.87-2.61,3.41,3.41,0,0,0-4.68,0,3.67,3.67,0,0,0-.87,2.61v9.09H254.8V154.79h5.13V157a5.51,5.51,0,0,1,2.1-1.76,6.81,6.81,0,0,1,3-.64A6.09,6.09,0,0,1,269.7,156.52Z"/><path class="cls-2" d="M284.35,167.18v4.35h-2.61a6.39,6.39,0,0,1-4.35-1.36q-1.56-1.36-1.56-4.46v-6.66h-2v-4.26h2v-4.08H281v4.08h3.36v4.26H281v6.72a1.41,1.41,0,0,0,.36,1.08,1.76,1.76,0,0,0,1.2.33Z"/><path class="cls-2" d="M302.89,164.39H291.28a3.5,3.5,0,0,0,1,2.39,3.05,3.05,0,0,0,2.17.82,2.7,2.7,0,0,0,2.67-1.62h5.46a7.48,7.48,0,0,1-1.51,3,7.6,7.6,0,0,1-2.75,2.07,8.82,8.82,0,0,1-3.69.75,9,9,0,0,1-4.38-1.05,7.47,7.47,0,0,1-3-3,9.26,9.26,0,0,1-1.08-4.56,9.37,9.37,0,0,1,1.07-4.56,7.36,7.36,0,0,1,3-3,9,9,0,0,1,4.41-1,9,9,0,0,1,4.32,1,7.34,7.34,0,0,1,3,2.91,8.83,8.83,0,0,1,1.06,4.41A13.1,13.1,0,0,1,302.89,164.39Zm-5.16-2.85a2.64,2.64,0,0,0-.9-2.1,3.31,3.31,0,0,0-2.25-.78,3.24,3.24,0,0,0-2.17.75,3.34,3.34,0,0,0-1.1,2.13Z"/><path class="cls-2" d="M313.06,155.41a5.81,5.81,0,0,1,3-.8V160h-1.41a4.32,4.32,0,0,0-2.88.83,3.65,3.65,0,0,0-1,2.89v7.77h-5.13V154.79h5.13v2.79A6.75,6.75,0,0,1,313.06,155.41Z"/><path class="cls-2" d="M333.42,156.52a7.42,7.42,0,0,1,1.75,5.23v9.78h-5.1v-9.09a3.67,3.67,0,0,0-.87-2.61,3.41,3.41,0,0,0-4.68,0,3.67,3.67,0,0,0-.87,2.61v9.09h-5.13V154.79h5.13V157a5.51,5.51,0,0,1,2.1-1.76,6.81,6.81,0,0,1,3-.64A6.09,6.09,0,0,1,333.42,156.52Z"/><path class="cls-2" d="M338.7,158.6a7.26,7.26,0,0,1,2.65-3,6.93,6.93,0,0,1,3.75-1,6.46,6.46,0,0,1,3.11.72,5.29,5.29,0,0,1,2.05,1.89v-2.37h5.13v16.74h-5.13v-2.37a5.52,5.52,0,0,1-2.08,1.89,6.46,6.46,0,0,1-3.11.72,6.8,6.8,0,0,1-3.72-1.06,7.32,7.32,0,0,1-2.65-3,11,11,0,0,1,0-9.07Zm10.5,1.53a3.6,3.6,0,0,0-5.19,0,4.13,4.13,0,0,0-1.07,3,4.24,4.24,0,0,0,1.07,3,3.43,3.43,0,0,0,2.59,1.13,3.47,3.47,0,0,0,2.6-1.11,4.86,4.86,0,0,0,0-6.06Z"/><path class="cls-2" d="M368.44,167.18v4.35h-2.61a6.39,6.39,0,0,1-4.35-1.36q-1.56-1.36-1.56-4.46v-6.66h-2v-4.26h2v-4.08h5.13v4.08h3.36v4.26h-3.36v6.72a1.41,1.41,0,0,0,.36,1.08,1.76,1.76,0,0,0,1.2.33Z"/><path class="cls-2" d="M371.67,152.25a2.56,2.56,0,0,1-.86-2,2.64,2.64,0,0,1,.86-2,3.43,3.43,0,0,1,4.38,0,2.63,2.63,0,0,1,.85,2,2.55,2.55,0,0,1-.85,2,3.4,3.4,0,0,1-4.38,0Zm4.75,2.54v16.74h-5.13V154.79Z"/><path class="cls-2" d="M383.34,170.72a7.69,7.69,0,0,1-3.09-3,9,9,0,0,1-1.13-4.56,8.87,8.87,0,0,1,1.14-4.54,7.75,7.75,0,0,1,3.12-3,9.91,9.91,0,0,1,8.88,0,7.75,7.75,0,0,1,3.12,3,9.59,9.59,0,0,1,0,9.09,7.8,7.8,0,0,1-3.15,3,9.44,9.44,0,0,1-4.46,1.05A9.22,9.22,0,0,1,383.34,170.72Zm6.93-4.47a4.29,4.29,0,0,0,1-3.09,4.37,4.37,0,0,0-1-3.09,3.41,3.41,0,0,0-5,0,4.39,4.39,0,0,0-1,3.1,4.46,4.46,0,0,0,1,3.09,3.15,3.15,0,0,0,2.44,1.08A3.35,3.35,0,0,0,390.27,166.25Z"/><path class="cls-2" d="M414.15,156.52a7.42,7.42,0,0,1,1.75,5.23v9.78h-5.1v-9.09a3.67,3.67,0,0,0-.87-2.61,3.41,3.41,0,0,0-4.68,0,3.67,3.67,0,0,0-.87,2.61v9.09h-5.13V154.79h5.13V157a5.51,5.51,0,0,1,2.1-1.76,6.81,6.81,0,0,1,3-.64A6.09,6.09,0,0,1,414.15,156.52Z"/><path class="cls-2" d="M447.88,162.54a5.54,5.54,0,0,1-.73,7.45,7.8,7.8,0,0,1-5.15,1.54h-9.81V150.47h9.48a7.79,7.79,0,0,1,5,1.47,5.35,5.35,0,0,1,.84,7.08,5.06,5.06,0,0,1-2.6,1.71A4.94,4.94,0,0,1,447.88,162.54ZM437.32,159h3.36a3,3,0,0,0,1.94-.55,2,2,0,0,0,.67-1.64,2,2,0,0,0-.67-1.65,2.93,2.93,0,0,0-1.94-.57h-3.36Zm5.78,7.82a2.08,2.08,0,0,0,.7-1.7,2.17,2.17,0,0,0-.73-1.74,3,3,0,0,0-2-.63h-3.72v4.65h3.78A3.06,3.06,0,0,0,443.1,166.81Z"/><path class="cls-2" d="M455.16,170.72a7.69,7.69,0,0,1-3.09-3,9,9,0,0,1-1.13-4.56,8.87,8.87,0,0,1,1.14-4.54,7.75,7.75,0,0,1,3.12-3,9.91,9.91,0,0,1,8.88,0,7.75,7.75,0,0,1,3.12,3,9.59,9.59,0,0,1,0,9.09,7.8,7.8,0,0,1-3.15,3,9.44,9.44,0,0,1-4.46,1.05A9.22,9.22,0,0,1,455.16,170.72Zm6.93-4.47a4.29,4.29,0,0,0,1-3.09,4.37,4.37,0,0,0-1-3.09,3.41,3.41,0,0,0-5,0,4.39,4.39,0,0,0-1,3.1,4.46,4.46,0,0,0,1,3.09,3.15,3.15,0,0,0,2.44,1.08A3.35,3.35,0,0,0,462.09,166.25Z"/><path class="cls-2" d="M474.27,170.72a7.69,7.69,0,0,1-3.09-3,9,9,0,0,1-1.13-4.56,8.87,8.87,0,0,1,1.14-4.54,7.75,7.75,0,0,1,3.12-3,9.91,9.91,0,0,1,8.88,0,7.75,7.75,0,0,1,3.12,3,9.59,9.59,0,0,1,0,9.09,7.8,7.8,0,0,1-3.15,3,9.44,9.44,0,0,1-4.46,1.05A9.22,9.22,0,0,1,474.27,170.72Zm6.93-4.47a4.29,4.29,0,0,0,1-3.09,4.37,4.37,0,0,0-1-3.09,3.41,3.41,0,0,0-5,0,4.39,4.39,0,0,0-1,3.1,4.46,4.46,0,0,0,1,3.09,3.15,3.15,0,0,0,2.44,1.08A3.35,3.35,0,0,0,481.2,166.25Z"/><path class="cls-2" d="M500.41,171.53l-5.1-7v7h-5.13v-22.2h5.13V161.6l5.07-6.81h6.33l-7,8.4,7,8.34Z"/><path class="cls-2" d="M259.66,187.79a9.45,9.45,0,0,1,3.86,3.71,11.78,11.78,0,0,1,0,11,9.38,9.38,0,0,1-3.87,3.72,12.29,12.29,0,0,1-5.81,1.32H246V186.47h7.89A12.25,12.25,0,0,1,259.66,187.79ZM258,201.5a6,6,0,0,0,1.62-4.5,5.62,5.62,0,0,0-6.15-6.15h-2.43v12.24h2.43A6.19,6.19,0,0,0,258,201.5Z"/><path class="cls-2" d="M267.72,194.6a7.26,7.26,0,0,1,2.65-3,6.93,6.93,0,0,1,3.75-1,6.46,6.46,0,0,1,3.11.72,5.29,5.29,0,0,1,2,1.89v-2.37h5.13v16.74h-5.13v-2.37a5.52,5.52,0,0,1-2.08,1.89,6.46,6.46,0,0,1-3.11.72,6.8,6.8,0,0,1-3.72-1.06,7.32,7.32,0,0,1-2.65-3,11,11,0,0,1,0-9.07Zm10.5,1.53a3.6,3.6,0,0,0-5.19,0,4.13,4.13,0,0,0-1.07,3,4.24,4.24,0,0,0,1.07,3,3.43,3.43,0,0,0,2.59,1.13,3.47,3.47,0,0,0,2.6-1.11,4.86,4.86,0,0,0,0-6.06Z"/><path class="cls-2" d="M297.46,203.18v4.35h-2.61a6.39,6.39,0,0,1-4.35-1.36q-1.56-1.36-1.56-4.46v-6.66h-2v-4.26h2v-4.08h5.13v4.08h3.36v4.26h-3.36v6.72a1.41,1.41,0,0,0,.36,1.08,1.76,1.76,0,0,0,1.2.33Z"/><path class="cls-2" d="M300.27,194.6a7.26,7.26,0,0,1,2.65-3,6.93,6.93,0,0,1,3.75-1,6.46,6.46,0,0,1,3.11.72,5.29,5.29,0,0,1,2.05,1.89v-2.37H317v16.74h-5.13v-2.37a5.52,5.52,0,0,1-2.08,1.89,6.46,6.46,0,0,1-3.11.72,6.8,6.8,0,0,1-3.72-1.06,7.32,7.32,0,0,1-2.65-3,11,11,0,0,1,0-9.07Zm10.5,1.53a3.6,3.6,0,0,0-5.19,0,4.13,4.13,0,0,0-1.07,3,4.24,4.24,0,0,0,1.07,3,3.43,3.43,0,0,0,2.59,1.13,3.47,3.47,0,0,0,2.6-1.11,4.86,4.86,0,0,0,0-6.06Z"/><path class="cls-2" d="M333.58,194.87v4.26h-13.2v-4.26Z"/><path class="cls-2" d="M353.77,198.54A5.54,5.54,0,0,1,353,206a7.8,7.8,0,0,1-5.15,1.54h-9.81V186.47h9.48a7.79,7.79,0,0,1,5,1.47,5.35,5.35,0,0,1,.84,7.08,5.06,5.06,0,0,1-2.6,1.71A4.94,4.94,0,0,1,353.77,198.54ZM343.21,195h3.36a3,3,0,0,0,1.94-.55,2,2,0,0,0,.67-1.64,2,2,0,0,0-.67-1.65,2.93,2.93,0,0,0-1.94-.57h-3.36Zm5.78,7.82a2.08,2.08,0,0,0,.7-1.7,2.17,2.17,0,0,0-.73-1.74,3,3,0,0,0-2-.63h-3.72v4.65H347A3.06,3.06,0,0,0,349,202.81Z"/><path class="cls-2" d="M357.81,194.6a7.26,7.26,0,0,1,2.65-3,6.93,6.93,0,0,1,3.75-1,6.46,6.46,0,0,1,3.11.72,5.29,5.29,0,0,1,2.05,1.89v-2.37h5.13v16.74h-5.13v-2.37a5.52,5.52,0,0,1-2.08,1.89,6.46,6.46,0,0,1-3.11.72,6.8,6.8,0,0,1-3.72-1.06,7.32,7.32,0,0,1-2.65-3,11,11,0,0,1,0-9.07Zm10.5,1.53a3.6,3.6,0,0,0-5.19,0,4.13,4.13,0,0,0-1.07,3,4.24,4.24,0,0,0,1.07,3,3.43,3.43,0,0,0,2.59,1.13,3.47,3.47,0,0,0,2.6-1.11,4.86,4.86,0,0,0,0-6.06Z"/><path class="cls-2" d="M381.13,207a6.67,6.67,0,0,1-2.7-2.06,5.36,5.36,0,0,1-1.11-2.92h5.07a2,2,0,0,0,.81,1.41A2.87,2.87,0,0,0,385,204a2.54,2.54,0,0,0,1.49-.37,1.15,1.15,0,0,0,.52-1,1.12,1.12,0,0,0-.75-1.06,15,15,0,0,0-2.43-.77,21.32,21.32,0,0,1-3-.89,5.06,5.06,0,0,1-2.07-1.46,4,4,0,0,1-.87-2.72,4.6,4.6,0,0,1,.8-2.62,5.36,5.36,0,0,1,2.34-1.88,8.94,8.94,0,0,1,3.67-.69,7.38,7.38,0,0,1,5,1.56,6.06,6.06,0,0,1,2.08,4.14H387a2,2,0,0,0-.76-1.38,2.67,2.67,0,0,0-1.7-.51,2.34,2.34,0,0,0-1.38.35,1.09,1.09,0,0,0-.48.94,1.16,1.16,0,0,0,.77,1.08,12.18,12.18,0,0,0,2.38.72,24.19,24.19,0,0,1,3,1,5.24,5.24,0,0,1,2.06,1.5,4.21,4.21,0,0,1,.91,2.77,4.36,4.36,0,0,1-.82,2.62,5.39,5.39,0,0,1-2.37,1.82,9.09,9.09,0,0,1-3.59.66A9.62,9.62,0,0,1,381.13,207Z"/><path class="cls-2" d="M410.65,200.39H399a3.5,3.5,0,0,0,1,2.39,3.05,3.05,0,0,0,2.17.82,2.7,2.7,0,0,0,2.67-1.62h5.46a7.48,7.48,0,0,1-1.51,3,7.6,7.6,0,0,1-2.75,2.07,8.82,8.82,0,0,1-3.69.75,9,9,0,0,1-4.38-1.05,7.47,7.47,0,0,1-3-3,9.26,9.26,0,0,1-1.08-4.56A9.37,9.37,0,0,1,395,194.6a7.36,7.36,0,0,1,3-3,9,9,0,0,1,4.41-1,9,9,0,0,1,4.32,1,7.34,7.34,0,0,1,3,2.91,8.83,8.83,0,0,1,1.06,4.41A13.1,13.1,0,0,1,410.65,200.39Zm-5.16-2.85a2.64,2.64,0,0,0-.9-2.1,3.31,3.31,0,0,0-2.25-.78,3.24,3.24,0,0,0-2.17.75,3.34,3.34,0,0,0-1.1,2.13Z"/><g class="cls-3"><ellipse class="cls-4" cx="91.61" cy="208.03" rx="91.61" ry="10.08"/></g><path class="cls-5" d="M216.73,185.21a.1.1,0,0,1,0,.14c-.61.71-6.16,6.65-16.88,1.79C186.38,181,187.34,172.08,178,164.37c-8.56-7.09-22.94-3.29-28.74-1.32a25.89,25.89,0,0,1,.47-7s21.29-13.88,38.63-2.18c11.74,7.92,2.59,19.42,12.22,26.11a21.9,21.9,0,0,0,12.64,3.78A4.65,4.65,0,0,1,216.73,185.21Z"/><path class="cls-4" d="M207.79,189.23a19.34,19.34,0,0,1-8-1.91c-8.08-3.66-11-8.26-14-13.14-2-3.22-4.11-6.56-7.86-9.66-8.48-7-22.79-3.24-28.55-1.28l-.24.08,0-.26a26.59,26.59,0,0,1,.48-7.08v-.07l.07,0a50,50,0,0,1,12.87-5.5c6.88-1.85,17-2.77,26,3.32,6.24,4.21,6.64,9.38,7,14.37.34,4.44.67,8.62,5.17,11.75a21.43,21.43,0,0,0,12.48,3.74h.05a4.88,4.88,0,0,1,3.63,1.53h0a.31.31,0,0,1,0,.41A12.11,12.11,0,0,1,207.79,189.23Zm-43.12-29.17c4.81,0,9.71,1,13.49,4.15A37.27,37.27,0,0,1,186.1,174c3,4.82,5.88,9.38,13.85,13,10.3,4.67,15.76-.74,16.59-1.67a4.51,4.51,0,0,0-3.29-1.36h-.05a21.88,21.88,0,0,1-12.71-3.8c-4.65-3.24-5-7.52-5.34-12-.39-4.9-.78-10-6.87-14.07-16.55-11.17-37,1.31-38.35,2.14a26.71,26.71,0,0,0-.45,6.62A50.6,50.6,0,0,1,164.67,160.06Zm51.92,25.28Z"/><path class="cls-6" d="M216.75,185.35c-.61.71-6.16,6.65-16.88,1.79a30.68,30.68,0,0,1-5.53-3.18c-7.92-5.81-8.51-13.14-16.31-19.6-8.56-7.08-22.94-3.28-28.74-1.31a27.1,27.1,0,0,1,.4-6.68c0-.22.07-.34.07-.34s21.29-13.89,38.63-2.18c11.74,7.92,2.59,19.42,12.22,26.11a21.9,21.9,0,0,0,12.64,3.78,4.68,4.68,0,0,1,3.48,1.47A.1.1,0,0,1,216.75,185.35Z"/><path class="cls-7" d="M207.79,189.23a19.34,19.34,0,0,1-8-1.91,30.56,30.56,0,0,1-5.57-3.2c-4.12-3-6.23-6.38-8.46-9.94a36.45,36.45,0,0,0-7.86-9.66c-8.48-7-22.79-3.24-28.55-1.28a.21.21,0,0,1-.17,0,.21.21,0,0,1-.09-.15,27.64,27.64,0,0,1,.4-6.73c0-.23.08-.35.08-.35a.2.2,0,0,1,.08-.12,50,50,0,0,1,12.87-5.5c6.88-1.85,17-2.77,26,3.32,6.24,4.21,6.64,9.38,7,14.37.34,4.44.67,8.62,5.17,11.75a21.43,21.43,0,0,0,12.48,3.74h.05a4.88,4.88,0,0,1,3.63,1.53.31.31,0,0,1,0,.41h0A12.11,12.11,0,0,1,207.79,189.23Zm-43.11-29.17c4.8,0,9.7,1,13.48,4.15A37.27,37.27,0,0,1,186.1,174c2.21,3.52,4.3,6.85,8.36,9.82A29.49,29.49,0,0,0,200,187c10.29,4.67,15.74-.74,16.58-1.67a4.55,4.55,0,0,0-3.29-1.36,21.92,21.92,0,0,1-12.76-3.8c-4.65-3.24-5-7.52-5.34-12-.39-4.9-.78-10-6.87-14.07-16.55-11.17-37,1.3-38.34,2.14,0,.06,0,.14-.06.25a27,27,0,0,0-.4,6.37A50.61,50.61,0,0,1,164.68,160.06Zm52.07,25.29Z"/><g class="cls-3"><path class="cls-4" d="M194.34,184c-7.92-5.81-8.51-13.14-16.31-19.6-8.56-7.08-22.94-3.28-28.74-1.31a27.1,27.1,0,0,1,.4-6.68l.57.08s23.64-6.26,30.82,2.92C187.11,167.08,183.58,172.61,194.34,184Z"/></g><path class="cls-4" d="M207.78,190.39a20.33,20.33,0,0,1-8.46-2c-8.4-3.81-11.52-8.77-14.53-13.58a36,36,0,0,0-7.62-9.39c-8-6.65-21.87-3-27.45-1.08l-1.68.58-.1-1.78a27.49,27.49,0,0,1,.51-7.42l.13-.51.44-.29a50.1,50.1,0,0,1,13.2-5.65c10.19-2.74,19.5-1.53,26.93,3.48,6.7,4.52,7.15,10.21,7.54,15.23.34,4.34.64,8.08,4.69,10.9a20.31,20.31,0,0,0,11.82,3.53h.05a6.08,6.08,0,0,1,4.47,1.9,1.45,1.45,0,0,1,.05,1.94A13.32,13.32,0,0,1,207.78,190.39Zm-43.11-31.48c5,0,10.2,1.09,14.22,4.42a37.71,37.71,0,0,1,8.18,10c2.93,4.67,5.7,9.08,13.36,12.55s12.37,1,14.31-.51a3.53,3.53,0,0,0-1.49-.32s0,0-.06,0a22.94,22.94,0,0,1-13.35-4c-5.1-3.54-5.48-8.3-5.84-12.9-.38-4.84-.74-9.41-6.36-13.21-15-10.14-33.52,0-36.68,1.91a26.52,26.52,0,0,0-.36,4.34A49.84,49.84,0,0,1,164.67,158.91Zm51.07,27.21h0Zm0-1.65h0Z"/><path class="cls-8" d="M215.45,192.49c-8.08,6.7-25.22,2.58-38.14-8.3-7.5-6.33-18-8-24.56-8.32a31.9,31.9,0,0,1-3.46-12.82c5.8-2,20.18-5.77,28.74,1.32,9.31,7.71,8.35,16.66,21.84,22.77,10.15,4.6,15.67-.48,16.74-1.63a.3.3,0,0,1,.43.07,3.43,3.43,0,0,1,.58,3.1A11.87,11.87,0,0,1,215.45,192.49Z"/><path class="cls-4" d="M205,195.89c-8.43,0-19-4.13-27.8-11.55-7.28-6.14-17.31-7.89-24.44-8.27h-.12l-.05-.11a32,32,0,0,1-3.48-12.9v-.15l.15,0c5.82-2,20.29-5.8,28.93,1.35A37.27,37.27,0,0,1,186.1,174c3,4.82,5.88,9.38,13.85,13,10.06,4.56,15.52-.52,16.51-1.59a.41.41,0,0,1,.34-.12.55.55,0,0,1,.4.21,3.63,3.63,0,0,1,.61,3.28,12,12,0,0,1-2.21,3.88l0,0C212.92,194.85,209.22,195.89,205,195.89Zm-52.1-20.21c7.18.4,17.23,2.18,24.56,8.36,13.09,11,30.07,14.76,37.86,8.31a11.61,11.61,0,0,0,2.13-3.74,3.22,3.22,0,0,0-.55-2.91.13.13,0,0,0-.13,0c-1,1.09-6.66,6.35-17,1.67-8.08-3.66-11-8.26-14-13.14-2-3.22-4.11-6.56-7.86-9.66-8.41-7-22.55-3.3-28.4-1.33A31.47,31.47,0,0,0,152.88,175.68Z"/><path class="cls-9" d="M215.45,192.49a13.54,13.54,0,0,1-5,2.54,17.16,17.16,0,0,1-2.33.48c-8.85,1.28-21.06-3.08-30.84-11.32-7.5-6.33-18-8-24.56-8.32a32.07,32.07,0,0,1-3.46-12.79v0a50.74,50.74,0,0,1,15-2.8c4.88-.05,9.89.94,13.73,4.11,9.31,7.72,8.35,16.67,21.84,22.78,10.15,4.6,15.67-.48,16.74-1.63a.3.3,0,0,1,.43.07,3.41,3.41,0,0,1,.58,3.09A11.81,11.81,0,0,1,215.45,192.49Z"/><path class="cls-7" d="M204.91,195.94c-8.6,0-19.1-4.33-27.73-11.6-7.28-6.14-17.31-7.89-24.44-8.27a.2.2,0,0,1-.17-.11,32.23,32.23,0,0,1-3.48-12.87V163a.19.19,0,0,1,.14-.17,50.93,50.93,0,0,1,15.07-2.8c5.78-.08,10.45,1.33,13.86,4.15A37.27,37.27,0,0,1,186.1,174c3,4.82,5.88,9.38,13.86,13,10,4.56,15.51-.52,16.51-1.59a.37.37,0,0,1,.33-.12.57.57,0,0,1,.4.21,3.63,3.63,0,0,1,.61,3.28,12,12,0,0,1-2.21,3.88l0,0a13.53,13.53,0,0,1-5,2.58,17.14,17.14,0,0,1-2.35.49A23.2,23.2,0,0,1,204.91,195.94Zm-52-20.26c7.18.4,17.23,2.18,24.56,8.36,9.67,8.15,21.71,12.57,30.68,11.28a18,18,0,0,0,2.3-.49,13.09,13.09,0,0,0,4.88-2.48,11.42,11.42,0,0,0,2.13-3.74,3.23,3.23,0,0,0-.55-2.91.13.13,0,0,0-.13,0c-1,1.09-6.66,6.35-17,1.67-8.08-3.66-11-8.27-14-13.14-2-3.22-4.11-6.56-7.86-9.66-3.33-2.76-7.92-4.14-13.6-4.07a50.67,50.67,0,0,0-14.8,2.74A31.63,31.63,0,0,0,152.88,175.68Zm62.57,16.81Z"/><g class="cls-3"><path class="cls-4" d="M208.15,195.51c-8.85,1.28-21.06-3.08-30.84-11.32-7.5-6.33-18-8-24.56-8.32a32.07,32.07,0,0,1-3.46-12.79c2.08-.64,15.06-.16,21.66,6.7C178.29,177.4,186.84,193,208.15,195.51Z"/></g><path class="cls-4" d="M205,197.09a32.2,32.2,0,0,1-7.06-.84,51.86,51.86,0,0,1-21.46-11c-7-5.94-16.81-7.63-23.76-8l-.78,0-.35-.69a33.18,33.18,0,0,1-3.61-13.37l-.05-1,1-.33c6-2,20.95-6,30,1.56a37.71,37.71,0,0,1,8.18,10c2.93,4.67,5.7,9.08,13.36,12.55,9.34,4.24,14.29-.36,15.19-1.32a1.57,1.57,0,0,1,1.25-.49,1.7,1.7,0,0,1,1.26.69,4.74,4.74,0,0,1,.77,4.31,13,13,0,0,1-2.42,4.25l-.08.1-.09.08C213.47,195.88,209.56,197.09,205,197.09Zm-51.35-22.52c7.3.48,17.22,2.39,24.57,8.59,12.64,10.65,28.88,14.38,36.31,8.37a10.22,10.22,0,0,0,1.85-3.28,1.72,1.72,0,0,0,.07-.75c-2.45,1.92-8.17,4.92-17.09.87-8.4-3.81-11.52-8.77-14.53-13.58a36,36,0,0,0-7.62-9.39c-7.59-6.28-20.37-3.34-26.46-1.4A30.37,30.37,0,0,0,153.61,174.57Zm61.84,17.92Zm2.15-6.06h0Z"/><path class="cls-10" d="M215.45,192.49c-5.48,6.6-19.26,11.09-38.88,3.13-13.32-5.4-20.27-12.8-23.82-19.75,6.59.36,17.06,2,24.56,8.32C190.23,195.07,207.37,199.19,215.45,192.49Z"/><g class="cls-3"><path class="cls-4" d="M203.86,199c-6.92,1.61-16.17,1.1-27.29-3.42-13.32-5.4-20.27-12.8-23.82-19.75,13.42,2.3,17.49,11.76,26.34,16.64C186.47,196.57,198.2,198.31,203.86,199Z"/></g><path class="cls-4" d="M196.29,201.22a54.55,54.55,0,0,1-20.23-4.35c-11.79-4.78-20-11.64-24.51-20.38l-1.07-2.09,2.34.13c7.37.39,17.75,2.21,25.36,8.63,12.69,10.69,29,14.42,36.4,8.29l1.9,1.9c-3.24,3.91-8.56,6.57-15,7.5A36.83,36.83,0,0,1,196.29,201.22ZM155.16,177.4c4.38,7.14,11.74,12.85,21.91,17,11.86,4.81,21.81,5,28.83,2.7a31.39,31.39,0,0,1-8-.82,51.86,51.86,0,0,1-21.46-11C170.2,180,161.82,178,155.16,177.4Z"/><path class="cls-11" d="M34.41,148.59l0,.07h0Z"/><polygon class="cls-4" points="34.5 148.86 34.29 148.86 34.12 148.69 34.23 148.49 34.37 148.56 34.37 148.46 34.37 148.56 34.44 148.59 34.51 148.52 34.44 148.59 34.59 148.67 34.5 148.86"/><path class="cls-2" d="M53,170.85s-18.58-21.26-29.55-3.14v20.64H160.54l-1.69-20.64c-11-18.12-29.55,3.14-29.55,3.14"/><path class="cls-4" d="M160.75,188.55H23.25V167.66l0,0c2.74-4.53,6.21-7,10.3-7.37,9.58-.82,19.47,10.36,19.57,10.47l-.3.27c-.1-.11-9.87-11.15-19.24-10.34-3.94.34-7.29,2.74-10,7.13v20.38H160.32l-1.67-20.37c-2.67-4.4-6-6.8-10-7.14-9.36-.81-19.14,10.23-19.23,10.34l-.3-.27c.1-.11,10-11.29,19.57-10.47,4.09.36,7.55,2.84,10.3,7.37l0,0v0Z"/><g class="cls-12"><path class="cls-2" d="M52.6,171.52c-23.16-15.65-22.54,5.84-22.54,5.84a31.07,31.07,0,0,0-6.43-9.05c1.11-2.34,6.59-6.46,6.59-6.46A7,7,0,0,0,31.5,160c.1-.22,8.3,1.68,8.4,1.44Z"/></g><g class="cls-12"><path class="cls-2" d="M129.48,171.52c23.16-15.65,22.54,5.84,22.54,5.84a31.45,31.45,0,0,1,6.43-9.05c-1.1-2.34-6.59-6.46-6.59-6.46a7,7,0,0,1-1.27-1.87c-.11-.22-8.31,1.68-8.41,1.44Z"/></g><path class="cls-4" d="M162,189.7H22.1V167.34l.19-.33c2.95-4.86,6.71-7.52,11.19-7.91C43.62,158.21,53.6,169.48,54,170a1.35,1.35,0,1,1-2,1.77c-.09-.1-9.49-10.71-18.27-9.94-3.48.3-6.48,2.42-8.91,6.31V187H159.07l-1.54-18.85c-2.44-3.92-5.45-6.06-8.94-6.36-8.78-.78-18.18,9.84-18.28,9.94a1.35,1.35,0,1,1-2-1.77c.42-.48,10.39-11.75,20.54-10.86,4.47.39,8.24,3.05,11.18,7.91l.17.28Z"/><path class="cls-2" d="M177.55,181a24.9,24.9,0,0,1-6.47,16.95,27.46,27.46,0,0,1-20.44,9h-119a27.47,27.47,0,0,1-20.45-9A24.89,24.89,0,0,1,4.75,181c-.11-19.92,16.87-17,21.51-8.69C28.35,176,31,182.44,31,182.44H151.27s2.67-6.42,4.77-10.17C160.67,164,177.65,161,177.55,181Z"/><path class="cls-13" d="M177.55,181a24.9,24.9,0,0,1-6.47,16.95,27.46,27.46,0,0,1-20.44,9H137.83c10.7-9.35,13.44-24.42,13.44-24.42s2.67-6.42,4.77-10.17C160.67,164,177.65,161,177.55,181Z"/><path class="cls-13" d="M4.75,181a24.85,24.85,0,0,0,6.47,16.95,27.43,27.43,0,0,0,20.44,9h12.8C33.77,197.51,31,182.44,31,182.44s-2.66-6.42-4.76-10.17C21.62,164,4.64,161,4.75,181Z"/><g class="cls-14"><path class="cls-2" d="M5.66,178.88s2.92-7.13,8.41-8,11.29,3.78,14.92,8.87c0,0-4.69-13-10.89-13.79S4.28,171.75,5.66,178.88Z"/></g><g class="cls-14"><path class="cls-2" d="M176.79,178.88s-2.92-7.13-8.41-8-11.29,3.78-14.92,8.87c0,0,4.69-13,10.89-13.79S178.16,171.75,176.79,178.88Z"/></g><path class="cls-4" d="M23.87,167.59A10.11,10.11,0,0,1,27,170.74a11.17,11.17,0,0,1,.56,1c.15.31.3.62.44.94.29.63.53,1.26.78,1.9.5,1.27.94,2.55,1.34,3.85s.77,2.61,1.05,3.94a.21.21,0,0,1-.15.24.22.22,0,0,1-.21-.09c-1.49-2.27-2.84-4.6-4.21-6.87-.34-.58-.69-1.14-1-1.7l-.51-.83c-.17-.27-.31-.5-.49-.74a19.34,19.34,0,0,0-2.36-2.63l0,0a1.35,1.35,0,0,1,1.66-2.12Z"/><path class="cls-4" d="M150.64,208.21h-119a28.79,28.79,0,0,1-21.45-9.4A26.21,26.21,0,0,1,3.4,181c0-9.59,3.65-13.54,6.77-15.17,3.89-2,9.09-1.46,13.25,1.47a1.35,1.35,0,1,1-1.55,2.21c-3.35-2.35-7.45-2.86-10.45-1.29C7.9,170,6.06,174.43,6.1,181A23.51,23.51,0,0,0,12.22,197a26.07,26.07,0,0,0,19.44,8.51h119A26.08,26.08,0,0,0,170.08,197,23.56,23.56,0,0,0,176.2,181c0-6.55-1.83-11-5.38-12.8-3-1.57-7.19-1-10.55,1.43a1.35,1.35,0,0,1-1.58-2.19c4.17-3,9.41-3.67,13.36-1.64,3.15,1.62,6.9,5.57,6.85,15.21a26.17,26.17,0,0,1-6.82,17.85A28.79,28.79,0,0,1,150.64,208.21Z"/><path class="cls-4" d="M151.1,182.36c.27-1.31.62-2.58,1-3.85s.82-2.53,1.3-3.77c.24-.62.48-1.24.76-1.86.13-.3.27-.61.42-.92.07-.15.15-.29.23-.46l.27-.49a10.06,10.06,0,0,1,3-3.17,1.35,1.35,0,0,1,1.71,2.08l0,0a19,19,0,0,0-2.23,2.63c-.08.12-.16.23-.23.35l-.24.4c-.17.27-.34.54-.5.82l-1,1.65c-1.34,2.23-2.67,4.5-4.14,6.71a.19.19,0,0,1-.35-.15Z"/><g class="cls-3"><path class="cls-4" d="M177,186.89a21.05,21.05,0,0,1-6,12,27.29,27.29,0,0,1-19.56,7.9H30.28a27.31,27.31,0,0,1-19.57-7.9,21.1,21.1,0,0,1-6-12l1.19-.56S9.64,197.21,18.78,198c9.77.87,14.32-8,14.32-8S38,200.48,48.3,200.48c3.27,0,43.1,1.08,43.1,1.08,13.88-.74,39.74-.84,42-1.08a19.53,19.53,0,0,0,16.48-12.73s2.95,9.12,10.34,9.12c13.52,0,15.55-10.54,15.55-10.54Z"/></g><path class="cls-10" d="M119.92,138c1.66,6.45,18,17.66,33.77,1.12L144.3,124l-27.38-1.25Z"/><g class="cls-3"><path class="cls-4" d="M150.05,141.89c-15.11,13.6-30.14,3.07-31.72-3.11l-3-15.2,10,.46,1.83,9.28C128.48,138.27,138.38,146,150.05,141.89Z"/></g><path class="cls-4" d="M136.06,149.06a20.68,20.68,0,0,1-5.15-.65c-6.76-1.76-11.38-6.51-12.29-10.09l0-.07-3.34-16.89,29.82,1.35,10.31,16.57-.72.76C147.78,147.25,141.06,149.06,136.06,149.06Zm-14.82-11.37c.74,2.8,4.9,6.69,10.35,8.11,4.91,1.28,12.38,1.08,20.39-6.88l-8.45-13.58-25-1.13Z"/><path class="cls-9" d="M128.82,128.16c.05,7.76,20.74,21.61,34.66,2.7L148.3,110.65l-28.73-5.43Z"/><path class="cls-7" d="M146.6,140.53a20.34,20.34,0,0,1-6.2-1c-6.34-2.06-11.72-7.25-11.78-11.35l-9.24-22.91a.21.21,0,0,1,0-.2.23.23,0,0,1,.19-.07l28.73,5.43a.22.22,0,0,1,.13.08l15.18,20.21a.17.17,0,0,1,0,.23C158,138.66,151.53,140.53,146.6,140.53Zm-26.71-35L129,128.09a.19.19,0,0,1,0,.07c0,3.52,4.65,8.78,11.5,11a19.52,19.52,0,0,0,6.08,1c6.26,0,12.1-3.21,16.64-9.3l-15.06-20Z"/><g class="cls-3"><path class="cls-4" d="M163.48,130.86c-13.92,18.91-34.61,5.06-34.66-2.7l-9.25-22.94,6.36,1.21,6.32,15.67c.05,7,16.77,18.86,30.26,7.46Z"/></g><path class="cls-4" d="M146.63,141.69a21.44,21.44,0,0,1-6.58-1.05c-6.77-2.2-12.33-7.62-12.57-12.19l-10.09-25,31.67,6,16.11,21.43-.6.81C158.63,139.72,151.84,141.69,146.63,141.69ZM121.74,107l8.43,20.9v.25c0,3.06,4.42,7.88,10.71,9.93,4.58,1.49,13.29,2.46,20.91-7.23l-14.26-19Z"/><path class="cls-6" d="M176.77,117.9c-4.52,16-35.18,19.36-40.41,2.61l-3.19-3.19,2.1-12.25L107.51,55.4l23.63-2.78s8.39,3.7,13.07,18.65c2.76,8.85,1.64,25,3.48,36.32,1.93-5.61,5.11-11.54,10.2-13.33C169.16,90.31,181.43,101.43,176.77,117.9Z"/><path class="cls-7" d="M154.46,131.79c-7.21,0-15.67-2.93-18.28-11.18L133,117.46a.19.19,0,0,1-.06-.17l2.09-12.18L107.34,55.5a.21.21,0,0,1,0-.19.21.21,0,0,1,.15-.11l23.63-2.78a.16.16,0,0,1,.1,0c.09,0,8.53,3.92,13.18,18.78,1.58,5.07,1.89,12.34,2.21,20.05.23,5.33.46,10.83,1.16,15.52,2.52-7,5.9-11.24,10.06-12.7a14.21,14.21,0,0,1,14.66,3.23c5.1,4.79,6.78,12.51,4.48,20.65h0c-2.64,9.33-13.33,13.71-22.15,13.83Zm-21.08-14.54,3.12,3.11a.41.41,0,0,1,.05.09c2.56,8.21,11.11,11,18.27,10.94,9-.12,19.3-4.81,21.76-13.54h0c2.26-8,.63-15.56-4.36-20.25A13.82,13.82,0,0,0,158,94.45c-5.21,1.83-8.36,8.19-10.08,13.2a.19.19,0,0,1-.38,0,145.12,145.12,0,0,1-1.28-16.35c-.33-7.67-.63-14.92-2.2-19.94-4.42-14.12-12.23-18.18-12.91-18.51l-23.28,2.74L135.44,105a.2.2,0,0,1,0,.13Z"/><g class="cls-12"><path class="cls-2" d="M154.16,102.39c.82-1.66,3.6-5.37,9.74-4.78,5.55.53,10.6,7.46,7,8.73-2.48.88-3.88-4.24-7.76-4.43-2.8-.13-6.08,3.74-7.81,3.25A1.81,1.81,0,0,1,154.16,102.39Z"/></g><g class="cls-3"><path class="cls-4" d="M177.05,116.85c-.09.35-.18.7-.28,1.05-4.52,16-35.18,19.36-40.41,2.61l2.84-6.12C143.82,129.19,168.29,128.3,177.05,116.85Z"/></g><path class="cls-4" d="M158.68,120.43a8.82,8.82,0,0,1-2.58.41,7,7,0,0,1-2.7-.49,7.65,7.65,0,0,1-2.36-1.5,10.29,10.29,0,0,1-1.74-2.12,18.81,18.81,0,0,1-2.07-4.81,41.47,41.47,0,0,1-1.08-5c-1-6.64-1-13.24-1.29-19.76-.14-3.26-.33-6.51-.75-9.69a41.4,41.4,0,0,0-.86-4.67c-.1-.38-.21-.75-.32-1.12l-.38-1.13c-.27-.75-.5-1.52-.82-2.25a37.12,37.12,0,0,0-4.5-8.32,24.6,24.6,0,0,0-3.07-3.52c-.27-.27-.57-.52-.85-.78s-.6-.48-.9-.72-.61-.45-.92-.64l-.47-.28-.23-.13-.19-.1.7.11-23.63,2.78,1-2,27.75,49.67.24.42-.08.47-2.1,12.25-.37-1.18,2.32,2.32.24.24.09.31a12.94,12.94,0,0,0,3.12,5.2,15.94,15.94,0,0,0,5.12,3.45,25.49,25.49,0,0,0,12.56,1.71,25.75,25.75,0,0,0,12-4.19,15.54,15.54,0,0,0,4.34-4.4,10.28,10.28,0,0,0,.75-1.33L175,119c.11-.23.17-.48.26-.71l.25-.72.2-.78c.06-.26.13-.52.19-.78l.15-.79a21.76,21.76,0,0,0,.32-6.33,18.88,18.88,0,0,0-.56-3.09,19.69,19.69,0,0,0-1.1-2.92,15.49,15.49,0,0,0-1.63-2.64A15,15,0,0,0,170.93,98a15.47,15.47,0,0,0-2.54-1.71,12.77,12.77,0,0,0-2.85-1.08,15,15,0,0,0-1.49-.28c-.51,0-1-.08-1.52-.07a11.73,11.73,0,0,0-3,.41,16.82,16.82,0,0,0-2.86,1.09A14.78,14.78,0,0,0,154.12,98c-3.16,2.52-5,6.55-5.76,10.83v0a.45.45,0,0,1-.52.37.48.48,0,0,1-.37-.37,10.83,10.83,0,0,1-.17-1.78,13.1,13.1,0,0,1,.07-1.77,14.77,14.77,0,0,1,.79-3.5,14.38,14.38,0,0,1,1.66-3.27,14.07,14.07,0,0,1,2.48-2.75,15.06,15.06,0,0,1,3.1-2,17.14,17.14,0,0,1,3.46-1.23,15.17,15.17,0,0,1,3.68-.42,16.4,16.4,0,0,1,1.85.11,18.1,18.1,0,0,1,1.81.36,15.15,15.15,0,0,1,3.45,1.31,17.42,17.42,0,0,1,3,2.05,18.57,18.57,0,0,1,2.51,2.66,18.94,18.94,0,0,1,1.9,3.1,21.93,21.93,0,0,1,1.28,3.38,21.57,21.57,0,0,1,.64,3.54,24.46,24.46,0,0,1-.34,7.1l-.17.87c-.07.29-.15.57-.22.86l-.21.85-.3.88c-.11.29-.19.59-.32.87l-.4.83a14.08,14.08,0,0,1-.9,1.61,18.29,18.29,0,0,1-5.07,5.15,25.63,25.63,0,0,1-6.35,3.16,30.64,30.64,0,0,1-6.88,1.5,31.28,31.28,0,0,1-7-.08,25.45,25.45,0,0,1-6.86-1.84,19,19,0,0,1-6-4.05,15.77,15.77,0,0,1-3.75-6.27l.33.55-2.32-2.33-.5-.49.12-.69,2.1-12.25.15.89L106.34,56.06l-1-1.76,2-.24L131,51.28l.37-.05.33.15.36.18.31.17.58.36c.38.23.73.5,1.09.76s.7.53,1,.82.66.57,1,.87a28.3,28.3,0,0,1,3.39,3.88,39.8,39.8,0,0,1,4.83,8.93c.34.77.58,1.58.86,2.37l.41,1.2c.12.41.25.83.35,1.25a41.64,41.64,0,0,1,.93,5c.22,1.66.37,3.31.5,5s.23,3.29.31,4.94c.17,3.29.32,6.56.52,9.81s.43,6.49.85,9.66a43.78,43.78,0,0,0,.87,4.67,20.28,20.28,0,0,0,1.53,4.32,7.65,7.65,0,0,0,2.81,3.16,6.56,6.56,0,0,0,2,.73,11,11,0,0,0,2.31.13h0a.45.45,0,0,1,.15.88Z"/><path class="cls-15" d="M77.86,36.9c-.41-19.5,7.36-35.48,10.5-35.55s11.59,15.57,12,35.07"/><g class="cls-12"><path class="cls-2" d="M87.47,8.08c-1.76.78-6.15,11.37-3.73,15.27.4.64,1.23-.11,2.1-1.26a15.61,15.61,0,0,0,3.08-9.37C88.93,10.13,88.66,7.55,87.47,8.08Z"/></g><g class="cls-3"><path class="cls-4" d="M100.37,36.42l-22.51.48A73.62,73.62,0,0,1,78.33,27l6.14-.13a9.2,9.2,0,0,0,8.91-10.68,69.19,69.19,0,0,0-4-14.49C93,4.18,100,18.7,100.37,36.42Z"/></g><path class="cls-4" d="M77.86,38.25a1.36,1.36,0,0,1-1.35-1.32,73.26,73.26,0,0,1,4-25.54C81.45,8.73,84.79.08,88.33,0h0c3.53,0,7.21,8.44,8.26,11a73.39,73.39,0,0,1,5.08,25.35,1.35,1.35,0,0,1-2.7.06C98.61,17,90.56,3.44,88.39,2.71c-2.13.82-9.59,14.75-9.18,34.16a1.35,1.35,0,0,1-1.32,1.38Z"/><path class="cls-4" d="M78,32.28a1.35,1.35,0,0,1-.17-2.69c13.21-1.74,19.3-9.8,19.36-9.89a1.35,1.35,0,0,1,2.17,1.6c-.27.37-6.76,9.06-21.18,11Z"/><path class="cls-4" d="M79.66,20.55a1.35,1.35,0,0,1-.23-2.68h0c.1,0,9.92-1.8,14.23-8.47a1.35,1.35,0,0,1,2.27,1.46c-5,7.68-15.59,9.59-16,9.67Z"/><path class="cls-2" d="M142.11,105.52c-.07.39-.14.79-.22,1.18-.14.73-.3,1.46-.49,2.19a49.56,49.56,0,0,1-2.24,6.91C131,135.72,102,140.07,91.31,140.12c-10.69.41-39.87-2.7-48.84-22.26A49.35,49.35,0,0,1,40,111.25c-.12-.42-.25-.85-.36-1.27-.19-.69-.35-1.38-.5-2.07-6-26.85,11.93-51.3,11.93-51.3S36,48,42.56,36.44c5.1-9,22.78-6,27.54,7.25l38.3-.82c4.19-13.42,21.73-17.18,27.2-8.41C142.6,45.68,128,55,128,55S146.8,78.52,142.11,105.52Z"/><ellipse class="cls-16" cx="123.61" cy="42.56" rx="6.81" ry="5.73" transform="translate(-3.49 73.17) rotate(-32.54)"/><ellipse class="cls-16" cx="54.73" cy="44.03" rx="5.73" ry="6.81" transform="translate(-10.81 69.3) rotate(-59.9)"/><path class="cls-17" d="M141.4,108.89a49.56,49.56,0,0,1-2.24,6.91C131,135.72,102,140.07,91.31,140.12c-10.69.41-39.87-2.7-48.84-22.26A49.35,49.35,0,0,1,40,111.25c11.88-7.17,30.11-12,50.64-12.41C111,98.4,129.23,102.35,141.4,108.89Z"/><path class="cls-4" d="M89.4,141.51a80,80,0,0,1-23.57-3.75c-12.08-3.93-20.58-10.62-24.58-19.34-7.4-16.13-4.63-32.3-1-43A81.65,81.65,0,0,1,49.16,57a28.5,28.5,0,0,1-5.84-5.3c-4.23-5.18-4.9-10.68-1.93-15.92,2.32-4.09,7.08-6.25,12.75-5.77A20.25,20.25,0,0,1,71.37,43.23,1.36,1.36,0,0,1,70.55,45a1.34,1.34,0,0,1-1.72-.82A17.73,17.73,0,0,0,53.91,32.69C49.32,32.3,45.52,34,43.74,37.1c-5.78,10.21,7.43,18,8,18.34l1.3.75-.88,1.21a77.19,77.19,0,0,0-9.37,18.93c-3.45,10.25-6.1,25.67.92,41,8.61,18.76,37.25,21.86,47.56,21.48h0c10.32-.05,38.81-4.36,46.61-23.48,6.35-15.58,3.06-30.88-.83-41a77.44,77.44,0,0,0-10.16-18.51L126,54.64l1.27-.81c.55-.35,13.41-8.71,7.2-18.66-1.91-3.07-5.78-4.56-10.34-4a17.68,17.68,0,0,0-14.42,12.07,1.35,1.35,0,1,1-2.58-.8,20.22,20.22,0,0,1,16.65-13.95c5.64-.72,10.49,1.23,13,5.22,3.19,5.11,2.76,10.63-1.25,16a28.76,28.76,0,0,1-5.6,5.54,81.75,81.75,0,0,1,9.68,18c4.08,10.57,7.54,26.61.84,43-3.63,8.88-11.84,15.93-23.74,20.37a79,79,0,0,1-25.33,4.79C90.73,141.5,90.08,141.51,89.4,141.51Z"/><ellipse class="cls-18" cx="125.57" cy="99.97" rx="10.09" ry="6.66" transform="translate(-2.1 2.7) rotate(-1.22)"/><ellipse class="cls-18" cx="55.69" cy="101.46" rx="10.09" ry="6.66" transform="translate(-2.15 1.21) rotate(-1.22)"/><path class="cls-4" d="M51.06,58A1.35,1.35,0,0,1,50,55.8a70.12,70.12,0,0,1,5.13-6.11A1.35,1.35,0,1,1,57,51.6a68.16,68.16,0,0,0-4.87,5.82A1.36,1.36,0,0,1,51.06,58Z"/><path class="cls-10" d="M74.7,32.57A16.56,16.56,0,0,0,59.42,57.41c5.39,9.47,17.22,9.41,29.46,6.33,0,0-13.27-22-9.67-30.49A22.88,22.88,0,0,0,74.7,32.57Z"/><g class="cls-14"><path class="cls-2" d="M77,37.75a22,22,0,0,0-4.51-.68A16.56,16.56,0,0,0,58,43.93,16.48,16.48,0,0,1,74.7,32.57a22.88,22.88,0,0,1,4.51.68C75.61,41.73,74.25,44.11,77,37.75Z"/></g><g class="cls-3"><path class="cls-4" d="M88.87,63.74c-12.23,3.08-24.05,3.14-29.45-6.33a16.58,16.58,0,0,1-2-11.14,16.08,16.08,0,0,1,1.93-5.46,16.46,16.46,0,0,0,2.18,9.44c4.59,8.06,13.84,9.22,24,7.49C87.4,61.3,88.87,63.74,88.87,63.74Z"/></g><path class="cls-4" d="M75.94,66.94a31.38,31.38,0,0,1-4.56-.32c-6-.92-10.43-3.79-13.13-8.54A17.91,17.91,0,0,1,74.78,31.23a23,23,0,0,1,4.8.73l1.47.42-.6,1.4c-2.73,6.43,6,23.31,9.58,29.27L91,64.61l-1.76.44A54.79,54.79,0,0,1,75.94,66.94Zm-2.23-33a15,15,0,0,0-14.95,12.6,15.32,15.32,0,0,0,1.83,10.26c4.09,7.18,12.67,9.18,26.2,6.1-3-5.18-11.05-20.32-9.3-28.59a24.71,24.71,0,0,0-2.87-.34h0C74.32,33.9,74,33.89,73.71,33.89Z"/><path class="cls-9" d="M78.05,29.88a10.09,10.09,0,0,0-5.54,7.68c-.75,5.49-.67,14.55,5.83,21.63,10,10.94,29.35,1.85,29.35,1.85S97.08,38.57,98,32.58C98,32.58,90.22,23.88,78.05,29.88Z"/><path class="cls-7" d="M92,64.75c-4.92,0-10.06-1.29-13.85-5.42-6.7-7.3-6.56-16.79-5.88-21.79A10.26,10.26,0,0,1,78,29.71c12.17-6,20.1,2.65,20.18,2.74a.18.18,0,0,1,0,.16c-.88,5.86,9.58,28.12,9.69,28.35a.2.2,0,0,1,0,.15.16.16,0,0,1-.1.11A42.2,42.2,0,0,1,92,64.75ZM78.14,30.06a9.91,9.91,0,0,0-5.44,7.53c-.81,6-.48,14.65,5.78,21.47,9.31,10.14,27,2.76,28.94,1.88-1.07-2.29-10.4-22.41-9.64-28.29-.76-.79-8.31-8.18-19.64-2.59Zm-.09-.18Z"/><g class="cls-14"><path class="cls-2" d="M96.75,36.23S89,27.53,76.81,33.54a10.14,10.14,0,0,0-4.31,4v0a10.09,10.09,0,0,1,5.54-7.68c12.17-6,19.94,2.7,19.94,2.7C97.08,38.57,96,41,96.75,36.23Z"/></g><g class="cls-3"><path class="cls-4" d="M107.69,61s-19.32,9.09-29.35-1.85c-6.5-7.07-6.58-16.14-5.83-21.63A9.91,9.91,0,0,1,74.33,33c-.42,5.52.31,13.33,6,19.58,7.08,7.72,18.78,5.47,25.06,3.47C106.74,59,107.69,61,107.69,61Z"/></g><path class="cls-4" d="M92.07,66c-5.18,0-10.62-1.38-14.73-5.85-7-7.65-6.88-17.52-6.17-22.73a11.43,11.43,0,0,1,6.28-8.71c13-6.38,21.46,2.92,21.54,3l.43.47-.1.63c-.69,4.58,6.69,21.54,9.59,27.69l.57,1.22-1.22.57A42.46,42.46,0,0,1,92.07,66ZM86.53,29.11a17.77,17.77,0,0,0-7.88,2h0a8.74,8.74,0,0,0-4.81,6.65c-.78,5.79-.47,14,5.49,20.54,7.84,8.55,22.24,3.76,26.54,2.06-2.29-5-9.47-21.05-9.28-27.25A14.84,14.84,0,0,0,86.53,29.11Zm-8.48.77Z"/><path class="cls-6" d="M100.06,29.51a6.59,6.59,0,0,0-6.62,5.26,26,26,0,0,0,1.24,15.08c3.53,8.73,10.35,11.4,15.76,11.92,13.23,1.28,16.61-13.83,16.61-13.83A15.25,15.25,0,0,1,114.94,38a11.5,11.5,0,0,0-6-6.37A23.61,23.61,0,0,0,100.06,29.51Z"/><path class="cls-7" d="M112,62.05c-.51,0-1,0-1.57-.08-5.25-.51-12.28-3-15.94-12a26.39,26.39,0,0,1-1.25-15.19,6.8,6.8,0,0,1,6.82-5.42h0a23.31,23.31,0,0,1,9,2.14,11.57,11.57,0,0,1,6.11,6.48,15.14,15.14,0,0,0,11.94,9.81.24.24,0,0,1,.15.09.21.21,0,0,1,0,.16C127.21,48.13,124,62.05,112,62.05ZM99.89,29.71a6.39,6.39,0,0,0-6.26,5.1,26,26,0,0,0,1.23,15c3.58,8.85,10.46,11.3,15.6,11.8,12.05,1.17,15.86-11.64,16.34-13.46a15.62,15.62,0,0,1-12-10,11.13,11.13,0,0,0-5.91-6.25,22.87,22.87,0,0,0-8.79-2.11h-.16Z"/><g class="cls-14"><path class="cls-2" d="M125.54,47.65a15.34,15.34,0,0,1-12.72-7.72,11.46,11.46,0,0,0-7-5.23,23.44,23.44,0,0,0-9.1-.57,6.69,6.69,0,0,0-3.45,1.63c.06-.34.12-.67.19-1a6.59,6.59,0,0,1,6.62-5.26,23.66,23.66,0,0,1,8.86,2.12,11.47,11.47,0,0,1,6,6.37A15.32,15.32,0,0,0,125.54,47.65Z"/></g><g class="cls-3"><path class="cls-4" d="M127,47.94s-3.37,15.11-16.6,13.83c-5.41-.52-12.23-3.19-15.76-11.92a26,26,0,0,1-1.24-15.08A6.5,6.5,0,0,1,94,33.13a25.14,25.14,0,0,0,1.81,10.15c3.53,8.73,10.35,11.4,15.77,11.92,7.29.71,11.58-3.56,14-7.54A10.43,10.43,0,0,0,127,47.94Z"/></g><path class="cls-4" d="M112,63.2a16.91,16.91,0,0,1-1.71-.09A19.61,19.61,0,0,1,93.43,50.35,27.54,27.54,0,0,1,92.11,34.5a8,8,0,0,1,8-6.34,24.53,24.53,0,0,1,9.38,2.24,12.72,12.72,0,0,1,6.73,7.12,13.8,13.8,0,0,0,11,9.08l1.52.15-.33,1.49C128.33,48.39,124.86,63.2,112,63.2ZM99.89,30.86a5.23,5.23,0,0,0-5.13,4.19,24.84,24.84,0,0,0,1.17,14.29c3.36,8.32,9.82,10.62,14.65,11.09s9-1.49,12-5.86A22.67,22.67,0,0,0,125.34,49a16.57,16.57,0,0,1-11.66-10.52,10,10,0,0,0-5.31-5.61,21.78,21.78,0,0,0-8.34-2h-.14Z"/><path class="cls-4" d="M89.91,112.61a8,8,0,0,0,2.41.71,6.57,6.57,0,0,0,2.39-.11,3.8,3.8,0,0,0,1.05-.4,2,2,0,0,0,.46-.29,2.79,2.79,0,0,0,.42-.35,5.48,5.48,0,0,0,1.2-2v0a.62.62,0,0,1,.8-.37.61.61,0,0,1,.41.55,4.89,4.89,0,0,1-1,3.15,3.31,3.31,0,0,1-.59.65,5.15,5.15,0,0,1-.7.53,6,6,0,0,1-1.6.65,6.69,6.69,0,0,1-3.27-.06,6,6,0,0,1-2.77-1.58.62.62,0,0,1,.71-1Z"/><ellipse class="cls-4" cx="96.28" cy="105.34" rx="1.94" ry="1.08" transform="translate(-45.52 121.42) rotate(-54.04)"/><ellipse class="cls-4" cx="88.11" cy="105.51" rx="1.08" ry="1.94" transform="translate(-46.48 77.55) rotate(-38.4)"/><path class="cls-2" d="M27.15,130.38l5.21-7.68s22-6.39,40.72-1.22c18.16,5,18.39,14.43,18.39,14.43V154.4H31.18Z"/><path class="cls-4" d="M91.47,154.6H31.18a.2.2,0,0,1-.2-.17l-4-24a.17.17,0,0,1,0-.14l5.2-7.69.11-.08c.22-.06,22.3-6.34,40.84-1.21,18.09,5,18.52,14.22,18.53,14.61v18.5A.2.2,0,0,1,91.47,154.6Zm-60.12-.4H91.27V135.91c0-.09-.46-9.31-18.24-14.23s-39.17.8-40.55,1.19l-5.12,7.55Z"/><path class="cls-2" d="M91.47,135.91V154.4H31.18l-4-24,3.3-4.87,1.91-2.82s22-6.38,40.72-1.21C91.24,126.51,91.47,135.91,91.47,135.91Z"/><path class="cls-4" d="M91.47,154.6H31.18a.2.2,0,0,1-.2-.17l-4-24a.17.17,0,0,1,0-.14l5.2-7.69a.28.28,0,0,1,.11-.08c.22-.06,22.3-6.34,40.84-1.21,18.09,5,18.52,14.23,18.53,14.61h0V154.4A.2.2,0,0,1,91.47,154.6Zm-60.12-.4H91.27V135.91c0-.17-.54-9.33-18.24-14.23-17.91-5-39.17.8-40.55,1.19l-5.12,7.55Z"/><g class="cls-3"><path class="cls-4" d="M89.89,139.07V154.4H31.18l-4-24,3.3-4.87c5.18-1.27,24.1-5.28,40.52-.86C89.65,129.68,89.89,139.07,89.89,139.07Z"/></g><path class="cls-2" d="M155.78,130.38l-5.2-7.68s-22-6.39-40.73-1.22c-18.16,5-18.38,14.43-18.38,14.43V154.4h60.28Z"/><path class="cls-4" d="M151.75,154.6H91.47a.2.2,0,0,1-.2-.2V135.91c0-.4.44-9.61,18.53-14.62,18.54-5.13,40.61,1.15,40.83,1.21a.31.31,0,0,1,.11.08l5.21,7.69a.17.17,0,0,1,0,.14l-4,24A.2.2,0,0,1,151.75,154.6Zm-60.08-.4h59.92l4-23.78-5.12-7.55c-1.37-.39-22.63-6.15-40.54-1.19s-18.24,14.14-18.24,14.23Z"/><path class="cls-2" d="M155.78,130.38l-4,24H91.47V135.91s.22-9.4,18.38-14.43c18.7-5.17,40.73,1.21,40.73,1.21l1.73,2.57Z"/><path class="cls-4" d="M151.75,154.6H91.47a.2.2,0,0,1-.2-.2V135.91c0-.39.44-9.61,18.53-14.62,18.54-5.13,40.61,1.15,40.83,1.21a.19.19,0,0,1,.11.08l5.21,7.69a.17.17,0,0,1,0,.14l-4,24A.2.2,0,0,1,151.75,154.6Zm-60.08-.4h59.92l4-23.78-5.12-7.55c-1.37-.39-22.63-6.15-40.54-1.19s-18.24,14.14-18.24,14.23Z"/><g class="cls-3"><path class="cls-4" d="M155.78,130.38l-4,24H93.13V139.2s.23-9.4,19.36-14.43c15.37-4,32.89-1,39.82.49Z"/></g><path class="cls-2" d="M83.18,135.25c-18.75-16.34-59.45-8.63-59.45-8.63l10.38,67s30.32-7.71,49.07,8.63Z"/><path class="cls-4" d="M83.18,202.46a.21.21,0,0,1-.13-.05c-18.46-16.09-48.59-8.67-48.89-8.59a.16.16,0,0,1-.16,0,.2.2,0,0,1-.09-.13l-10.38-67a.2.2,0,0,1,.16-.23,132.87,132.87,0,0,1,22.73-1.81c11.46.1,27.16,2,36.89,10.49a.2.2,0,0,1,.07.15v67a.2.2,0,0,1-.12.18ZM50.77,191.61h.84c9,.1,21.68,2,31.37,10.2V135.34c-17.84-15.45-56-9.1-59-8.56l10.32,66.6A77.51,77.51,0,0,1,50.77,191.61Z"/><path class="cls-2" d="M83.18,135.25c-18.75-16.34-59.45-8.63-59.45-8.63l10.38,67s30.32-7.71,49.07,8.63Z"/><path class="cls-4" d="M83.18,202.46a.21.21,0,0,1-.13-.05c-18.46-16.09-48.59-8.67-48.89-8.59a.16.16,0,0,1-.16,0,.2.2,0,0,1-.09-.13l-10.38-67a.2.2,0,0,1,.16-.23,132.87,132.87,0,0,1,22.73-1.81c11.46.1,27.16,2,36.89,10.49a.2.2,0,0,1,.07.15v67a.2.2,0,0,1-.12.18ZM50.77,191.61h.84c9,.1,21.68,2,31.37,10.2V135.34c-17.84-15.45-56-9.1-59-8.56l10.32,66.6A77.51,77.51,0,0,1,50.77,191.61Z"/><path class="cls-4" d="M91.47,155.75H31.18a1.35,1.35,0,0,1-1.33-1.13l-4-24a1.32,1.32,0,0,1,.22-1l5.2-7.68a1.38,1.38,0,0,1,.74-.54c.92-.27,22.61-6.43,41.46-1.22s19.37,15.27,19.38,15.7V154.4A1.36,1.36,0,0,1,91.47,155.75Zm-59.15-2.7h57.8V135.94c0-.37-.9-8.59-17.4-13.16s-36.28.23-39.52,1.09l-4.63,6.82Z"/><path class="cls-4" d="M151.75,155.75H91.47a1.35,1.35,0,0,1-1.35-1.35V135.91c0-.46.47-10.49,19.37-15.73s40.55.95,41.46,1.22a1.35,1.35,0,0,1,.74.54l5.21,7.68a1.36,1.36,0,0,1,.21,1l-4,24A1.34,1.34,0,0,1,151.75,155.75Zm-58.93-2.7h57.79l3.75-22.36-4.62-6.82c-3.24-.86-22.9-5.69-39.53-1.09s-17.36,12.79-17.39,13.16Z"/><path class="cls-19" d="M83.18,135.25v67c-18.75-16.34-49.07-8.63-49.07-8.63l-2.8-18-5.18-26.22-2.4-22.74S64.43,118.91,83.18,135.25Z"/><g class="cls-20"><path class="cls-2" d="M83.18,135.25v1.27c-12.5-8.34-31.72-8.64-44.16-7.73-6.75.49-11.75,5.68-11.13,11.56L29.22,153l4.89,40.63h0l-2.8-18-5.18-26.22-2.4-22.74S64.43,118.91,83.18,135.25Z"/></g><g class="cls-3"><path class="cls-4" d="M83.18,135.25v67c-18.75-16.34-49.07-8.63-49.07-8.63l-.88-8.3c6.79-1.08,18.92-2.69,32.59,2,6.23,2.14,13-1.89,13-7.73V132.07A30.69,30.69,0,0,1,83.18,135.25Z"/></g><path class="cls-19" d="M99.1,135.25c18.75-16.34,59.46-8.63,59.46-8.63l-10.39,67s-30.32-7.71-49.07,8.63Z"/><path class="cls-4" d="M83.18,203.61a1.38,1.38,0,0,1-.89-.34c-18-15.67-47.55-8.41-47.85-8.33a1.34,1.34,0,0,1-1.07-.19,1.31,1.31,0,0,1-.59-.91l-10.39-67a1.36,1.36,0,0,1,1.08-1.54,132.22,132.22,0,0,1,23-1.83c17,.15,29.61,3.78,37.64,10.77a1.37,1.37,0,0,1,.46,1v67a1.35,1.35,0,0,1-.79,1.23A1.38,1.38,0,0,1,83.18,203.61ZM50.75,190.46h.88c12.1.14,22.47,3.23,30.2,9V135.87c-16.37-13.64-49.62-9.24-56.57-8.14l10,64.27A78.51,78.51,0,0,1,50.75,190.46Z"/><path class="cls-19" d="M99.1,135.25v67c0,4.69-15.92,4.69-15.92,0v-67C83.18,140.22,99.1,140.22,99.1,135.25Z"/><g class="cls-20"><path class="cls-2" d="M99.1,135.25V138c0,5-15.92,5-15.92,0v-2.79C83.18,140.22,99.1,140.22,99.1,135.25Z"/></g><g class="cls-3"><path class="cls-4" d="M99.1,190.1v12.16c0,4.69-15.92,4.69-15.92,0V190.1C83.18,194.79,99.1,194.79,99.1,190.1Z"/></g><path class="cls-4" d="M91.14,207.13c-4.29,0-9.31-1.28-9.31-4.87v-67a1.35,1.35,0,1,1,2.7,0c0,1.15,2.66,2.38,6.61,2.38s6.61-1.23,6.61-2.38a1.35,1.35,0,0,1,2.7,0v67C100.45,205.85,95.44,207.13,91.14,207.13ZM84.53,139v63.26c0,1,2.72,2.17,6.61,2.17s6.61-1.15,6.61-2.17V139a17.09,17.09,0,0,1-13.22,0Z"/><ellipse class="cls-4" cx="91.14" cy="135.41" rx="8.19" ry="3.57"/><g class="cls-3"><path class="cls-4" d="M99.33,135.25v67c18.75-16.34,49.07-8.63,49.07-8.63l.87-8.3c-6.78-1.08-18.91-2.69-32.58,2-6.23,2.14-13-1.89-13-7.73V132.07A29.61,29.61,0,0,0,99.33,135.25Z"/></g><g class="cls-20"><path class="cls-2" d="M99.1,135.25v1.27c12.5-8.34,31.72-8.64,44.16-7.73,6.76.49,11.75,5.68,11.13,11.56L153.06,153l-4.89,40.63h0L151,175.47l4-26.08,3.53-22.77S117.86,118.91,99.1,135.25Z"/></g><path class="cls-4" d="M99.1,203.61a1.38,1.38,0,0,1-.56-.12,1.35,1.35,0,0,1-.79-1.23v-67a1.37,1.37,0,0,1,.46-1c8-7,20.69-10.62,37.64-10.77a132.22,132.22,0,0,1,23,1.83,1.36,1.36,0,0,1,1.08,1.54l-10.38,67a1.37,1.37,0,0,1-1.67,1.1c-.3-.08-29.86-7.34-47.85,8.33A1.36,1.36,0,0,1,99.1,203.61Zm1.35-67.74v63.57c7.73-5.74,18.1-8.83,30.2-9A78.68,78.68,0,0,1,147.06,192l10-64.27C150.07,126.63,116.82,122.23,100.45,135.87Z"/><path class="cls-13" d="M156,143.77a44,44,0,0,1-14.43,3.55c-9,.5-13.12,16.45-3.24,21.43,6.78,3.42,14.65.95,17.67-2.46C164.92,156.25,156,143.77,156,143.77Z"/><g class="cls-14"><path class="cls-2" d="M159.89,157.72a23.25,23.25,0,0,0-2.34-7.79,3.25,3.25,0,0,0-4-1.61,43.23,43.23,0,0,1-11.92,2.53c-4.76.27-8.16,4.89-8.82,9.91-.86-6.16,2.95-13.11,8.82-13.44A44,44,0,0,0,156,143.77S160.69,150.31,159.89,157.72Z"/></g><g class="cls-3"><path class="cls-4" d="M156,166.29c-3,3.41-10.89,5.88-17.67,2.46a10.49,10.49,0,0,1-5.71-9.82,10.05,10.05,0,0,0,3.9,3.41c6.77,3.42,14.64.95,17.67-2.47A15.32,15.32,0,0,0,158,147.44C160,151.88,161.93,159.63,156,166.29Z"/></g><path class="cls-4" d="M145.37,171.74a16.9,16.9,0,0,1-7.61-1.78c-5-2.51-7.39-8-6.13-14,1.18-5.69,5.16-9.69,9.9-10a42.68,42.68,0,0,0,13.94-3.42l1-.48.65.92c.1.13,9.39,13.48-.09,24.19C154.91,169.61,150.39,171.74,145.37,171.74Zm10.15-26.28a45.1,45.1,0,0,1-13.84,3.2c-4,.23-6.66,4.22-7.41,7.82-.79,3.8,0,8.71,4.71,11.07,6.3,3.17,13.49.74,16.05-2.16C161.86,157.67,157.27,148.38,155.52,145.46Z"/><path class="cls-13" d="M26.83,143.77a44,44,0,0,0,14.44,3.55c9,.5,13.11,16.45,3.23,21.43-6.78,3.42-14.65.95-17.67-2.46C18,156.25,26.83,143.77,26.83,143.77Z"/><g class="cls-14"><path class="cls-2" d="M50.09,160.82c-.69-5-4.08-9.57-8.83-9.84a41.1,41.1,0,0,1-8.75-1.52,7.19,7.19,0,0,0-8.89,5,22.19,22.19,0,0,0-.64,3.32c-.83-7.44,3.85-14,3.85-14a44,44,0,0,0,14.43,3.55C47.16,147.65,51,154.65,50.09,160.82Z"/></g><g class="cls-3"><path class="cls-4" d="M26.83,166.29c3,3.41,10.9,5.88,17.67,2.46a10.49,10.49,0,0,0,5.71-9.82,10.05,10.05,0,0,1-3.9,3.41c-6.77,3.42-14.64.95-17.67-2.47a15.32,15.32,0,0,1-3.81-12.43C22.87,151.88,20.94,159.63,26.83,166.29Z"/></g><path class="cls-4" d="M37.51,171.74c-5,0-9.54-2.13-11.69-4.56-9.48-10.71-.18-24.06-.09-24.19l.65-.92,1,.48A43,43,0,0,0,41.34,146c4.74.27,8.72,4.27,9.91,10,1.25,6-1.16,11.52-6.14,14A16.86,16.86,0,0,1,37.51,171.74ZM27.35,145.46c-1.75,2.92-6.34,12.21.49,19.93,2.56,2.9,9.75,5.33,16.05,2.16,4.68-2.36,5.51-7.27,4.71-11.07-.75-3.6-3.39-7.59-7.41-7.82A45.1,45.1,0,0,1,27.35,145.46Z"/><path class="cls-4" d="M61.62,115.76A23.28,23.28,0,1,1,84.9,92.48,23.3,23.3,0,0,1,61.62,115.76Zm0-43.86A20.58,20.58,0,1,0,82.2,92.48,20.6,20.6,0,0,0,61.62,71.9Z"/><path class="cls-4" d="M120.38,115.76a23.28,23.28,0,1,1,23.28-23.28A23.3,23.3,0,0,1,120.38,115.76Zm0-43.86A20.58,20.58,0,1,0,141,92.48,20.6,20.6,0,0,0,120.38,71.9Z"/><path class="cls-4" d="M101.78,82.21a1.38,1.38,0,0,1-1.1-.56A12.09,12.09,0,0,0,81.2,81.5,1.35,1.35,0,1,1,79,79.89,14.65,14.65,0,0,1,90.89,74a14.86,14.86,0,0,1,12,6.12,1.35,1.35,0,0,1-.3,1.88A1.38,1.38,0,0,1,101.78,82.21Z"/><path class="cls-2" d="M55.1,76.87a11.3,11.3,0,0,0-6.21,2.63c-2.79,2.38-4.78,7-3.71,10.34s3.28-3.41,5.06-6C53.35,79.42,57.64,76.9,55.1,76.87Z"/><path class="cls-2" d="M114,76.87a11.3,11.3,0,0,0-6.21,2.63c-2.8,2.38-4.78,7-3.72,10.34s3.29-3.41,5.07-6C112.23,79.42,116.53,76.9,114,76.87Z"/><ellipse class="cls-4" cx="66.62" cy="93.34" rx="11.27" ry="8.16" transform="translate(-31.6 152.52) rotate(-85.55)"/><ellipse class="cls-2" cx="68.84" cy="91.73" rx="3.78" ry="2.47" transform="translate(-27.95 153.25) rotate(-85.55)"/><ellipse class="cls-4" cx="114.76" cy="93.34" rx="8.16" ry="11.27" transform="translate(-6.89 9.18) rotate(-4.45)"/><ellipse class="cls-2" cx="112.54" cy="91.73" rx="2.47" ry="3.78" transform="translate(-6.77 9) rotate(-4.45)"/></g></g></svg>